<svg xmlns="http://www.w3.org/2000/svg" viewBox="0 0 1246 565" role="img" aria-labelledby="title desc"><title id="title">KlusHulp Noord</title><desc id="desc">Betaalbaar, betrouwbaar, voor iedereen</desc><rect width="1246" height="565" fill="#090909"/><g transform="translate(180 40)"><path d="M180 185L445 0l265 185h-65L445 48 245 185z" fill="#fff"/><path d="M445 0l265 185h-65L445 48z" fill="#f5b400"/><rect x="595" y="78" width="42" height="92" fill="#f5b400"/><rect x="420" y="74" width="22" height="22" fill="#f5b400"/><rect x="448" y="74" width="22" height="22" fill="#f5b400"/><rect x="420" y="102" width="22" height="22" fill="#f5b400"/><rect x="448" y="102" width="22" height="22" fill="#f5b400"/><text x="0" y="330" font-family="Arial Black,Arial,sans-serif" font-size="178" font-weight="900" fill="#fff">KH</text><text x="360" y="330" font-family="Arial Black,Arial,sans-serif" font-size="178" font-weight="900" fill="#f5b400">N</text><path d="M310 170h22v165h-22z" fill="#fff"/><path d="M287 165c18-40 58-46 88-28l-16 24c-20-12-39-8-49 10z" fill="#fff"/><circle cx="462" cy="244" r="24" fill="#090909"/><path d="M451 215h22l-5 27 20 18-15 17-21-18-18 10-10-19 22-13z" fill="#090909"/><text x="0" y="430" font-family="Arial Black,Arial,sans-serif" font-size="78" font-weight="900" fill="#fff">KLUSHULP</text><text x="520" y="430" font-family="Arial Black,Arial,sans-serif" font-size="78" font-weight="900" fill="#f5b400">NOORD</text><line x1="0" y1="473" x2="72" y2="473" stroke="#f5b400" stroke-width="8"/><text x="95" y="486" font-family="Arial,sans-serif" font-size="31" font-weight="700" letter-spacing="2" fill="#fff">BETAALBAAR · BETROUWBAAR · VOOR IEDEREEN</text><line x1="807" y1="473" x2="880" y2="473" stroke="#f5b400" stroke-width="8"/></g></svg>